<?xml version="1.0" standalone="no"?>
<!DOCTYPE svg PUBLIC "-//W3C//DTD SVG 20010904//EN"
 "http://www.w3.org/TR/2001/REC-SVG-20010904/DTD/svg10.dtd">
<svg version="1.0" xmlns="http://www.w3.org/2000/svg"
 width="260.000000pt" height="260.000000pt" viewBox="0 0 260.000000 260.000000"
 preserveAspectRatio="xMidYMid meet">
<metadata>
Created by potrace 1.11, written by Peter Selinger 2001-2013
</metadata>
<g transform="translate(0.000000,260.000000) scale(0.100000,-0.100000)"
fill="#000000" stroke="none">
<path d="M552 2027 c-63 -21 -71 -26 -143 -88 -92 -79 -126 -145 -132 -257 -9
-160 47 -278 183 -382 25 -19 50 -39 57 -45 6 -5 51 -41 100 -80 177 -140 212
-198 204 -331 -2 -31 -23 -52 -56 -59 -96 -18 -180 45 -208 156 -9 35 -19 81
-22 102 -7 43 -3 41 -75 22 -30 -8 -68 -17 -84 -20 -39 -8 -46 -13 -46 -36 0
-12 -7 -19 -19 -19 -23 0 -43 -23 -37 -41 3 -8 7 -30 10 -49 18 -123 97 -244
189 -292 94 -47 241 -55 353 -18 47 16 78 36 132 86 39 36 79 84 90 107 49
105 43 254 -13 367 -38 76 -94 134 -245 256 -235 188 -253 211 -254 322 0 74
13 92 70 97 95 10 168 -41 198 -140 10 -31 19 -68 19 -81 0 -25 1 -25 72 -9
105 25 135 37 135 55 0 12 10 21 30 25 17 4 28 10 26 14 -2 3 -7 27 -11 51
-15 104 -94 218 -181 263 -85 44 -250 55 -342 24z"/>
<path d="M1154 2032 c-16 -2 -20 -8 -16 -28 4 -21 1 -24 -27 -24 -17 0 -31 -2
-31 -5 0 -6 37 -212 45 -255 3 -14 8 -38 10 -55 3 -16 21 -115 40 -220 34
-192 39 -217 56 -312 5 -29 13 -77 18 -105 5 -29 12 -69 16 -88 3 -19 17 -98
31 -175 13 -77 26 -150 29 -162 5 -22 10 -23 105 -23 98 0 100 0 106 25 4 18
13 25 29 25 21 0 25 6 30 48 4 26 13 85 20 132 8 47 16 102 19 123 3 20 9 54
12 75 3 20 11 75 19 122 14 83 18 111 31 215 7 56 14 71 15 34 0 -13 2 -31 4
-40 1 -8 6 -41 9 -71 4 -31 8 -64 10 -74 4 -20 15 -90 21 -134 8 -51 45 -296
50 -325 3 -16 7 -46 10 -65 3 -19 8 -48 11 -63 l6 -28 101 3 c97 3 102 4 105
26 3 16 10 22 28 22 13 0 24 6 25 13 0 6 2 21 4 32 2 11 9 49 15 85 7 36 18
97 25 135 8 39 17 93 21 120 3 28 8 53 10 56 2 3 8 34 14 70 5 35 12 76 15 92
8 46 13 70 20 112 3 22 10 60 15 85 6 25 12 56 14 70 8 55 60 340 76 425 9 50
14 93 11 97 -8 9 -32 11 -123 9 -76 -1 -78 -2 -78 -26 0 -20 -5 -25 -25 -25
-14 0 -25 -3 -26 -7 0 -5 -2 -17 -5 -28 -2 -11 -6 -40 -10 -65 -3 -25 -8 -54
-10 -65 -5 -25 -43 -268 -49 -315 -3 -19 -7 -44 -9 -56 -2 -12 -7 -43 -11 -70
-3 -27 -8 -58 -10 -69 -2 -11 -4 -32 -4 -47 -1 -39 -16 -35 -19 5 -3 37 -31
235 -37 257 -2 8 -6 38 -10 65 -5 46 -30 208 -40 265 -3 14 -7 49 -11 78 -13
111 -8 106 -110 105 -49 -1 -95 -2 -101 -2 -7 -1 -13 -12 -13 -26 0 -20 -5
-25 -24 -25 -25 0 -28 -6 -41 -90 -3 -19 -7 -46 -10 -60 -2 -14 -7 -45 -10
-70 -3 -25 -8 -52 -10 -60 -2 -8 -7 -37 -10 -65 -3 -27 -7 -57 -9 -65 -1 -8
-6 -37 -10 -65 -4 -27 -10 -61 -12 -75 -2 -14 -6 -43 -9 -65 -3 -22 -8 -49
-10 -60 -2 -11 -4 -32 -4 -47 -1 -42 -17 -34 -19 10 -2 20 -5 48 -7 62 -2 14
-7 45 -10 70 -3 25 -10 70 -15 100 -12 70 -17 104 -25 160 -3 25 -12 83 -20
130 -14 84 -22 139 -30 201 -2 17 -6 33 -9 36 -5 5 -151 9 -182 5z"/>
</g>
</svg>
