<?xml version="1.0" encoding="utf-8"?>
<!-- Generator: Adobe Illustrator 19.1.0, SVG Export Plug-In . SVG Version: 6.00 Build 0)  -->
<svg version="1.1" id="Layer_1" xmlns="http://www.w3.org/2000/svg" xmlns:xlink="http://www.w3.org/1999/xlink" x="0px" y="0px"
	 viewBox="0 0 150 40" enable-background="new 0 0 150 40" xml:space="preserve">
<g>
	<text transform="matrix(1 0 0 1 3.1002 27.0408)" font-family="'Oswald-Regular'" font-size="19.5138px">60 Minutes To Play</text>
	<g>
		<linearGradient id="SVGID_1_" gradientUnits="userSpaceOnUse" x1="4.1675" y1="19.9424" x2="146.709" y2="19.9424">
			<stop  offset="0" style="stop-color:#2E3192"/>
			<stop  offset="0.1239" style="stop-color:#373091"/>
			<stop  offset="0.3299" style="stop-color:#512D8E"/>
			<stop  offset="0.5909" style="stop-color:#7A2988"/>
			<stop  offset="0.7739" style="stop-color:#9B2684"/>
			<stop  offset="0.9229" style="stop-color:#D0217D"/>
			<stop  offset="1" style="stop-color:#ED1E79"/>
		</linearGradient>
		<path fill="url(#SVGID_1_)" d="M8.4,27.2c-0.6,0-1.1-0.1-1.6-0.3c-0.5-0.2-0.9-0.5-1.2-0.8S5,25.4,4.8,24.9
			c-0.2-0.5-0.4-1-0.5-1.6s-0.2-1.1-0.2-1.8v-5.5c0-0.7,0-1.3,0.1-1.9c0.1-0.6,0.2-1.2,0.4-1.7c0.2-0.5,0.5-1,0.8-1.4
			c0.3-0.4,0.7-0.7,1.2-0.9c0.5-0.2,1.1-0.3,1.7-0.3c1.4,0,2.4,0.4,3.2,1.2c0.7,0.8,1.1,1.9,1.1,3.3h-2.4c0-0.8-0.1-1.4-0.4-1.8
			c-0.3-0.4-0.7-0.6-1.4-0.6c-1.2,0-1.8,1.2-1.8,3.7v2.4c0.5-0.8,1.3-1.2,2.4-1.2c0.7,0,1.3,0.1,1.8,0.4s0.9,0.6,1.1,1
			s0.5,1,0.6,1.5s0.2,1.2,0.2,2c0,0.8-0.1,1.5-0.2,2.2s-0.4,1.3-0.7,1.8c-0.3,0.5-0.8,0.9-1.3,1.2C9.8,27.1,9.2,27.2,8.4,27.2z
			 M7.5,25c0.2,0.2,0.5,0.3,0.9,0.3c0.3,0,0.6-0.1,0.9-0.3c0.2-0.2,0.4-0.4,0.6-0.7c0.1-0.3,0.2-0.6,0.3-1s0.1-0.7,0.1-1.1
			c0-0.2,0-0.4,0-0.5s0-0.3,0-0.5c0-0.2,0-0.4,0-0.5c0-0.1,0-0.3-0.1-0.5c0-0.2-0.1-0.3-0.1-0.4c0-0.1-0.1-0.2-0.2-0.4
			c-0.1-0.1-0.1-0.3-0.2-0.3s-0.2-0.2-0.3-0.2s-0.2-0.1-0.4-0.2c-0.2,0-0.3,0-0.5,0c-0.8,0-1.4,0.4-1.8,1.2v2.4c0,0.4,0,0.8,0.1,1.1
			s0.2,0.7,0.3,1C7.1,24.5,7.3,24.8,7.5,25z"/>
		<linearGradient id="SVGID_2_" gradientUnits="userSpaceOnUse" x1="4.1675" y1="19.9424" x2="146.709" y2="19.9424">
			<stop  offset="0" style="stop-color:#2E3192"/>
			<stop  offset="0.1239" style="stop-color:#373091"/>
			<stop  offset="0.3299" style="stop-color:#512D8E"/>
			<stop  offset="0.5909" style="stop-color:#7A2988"/>
			<stop  offset="0.7739" style="stop-color:#9B2684"/>
			<stop  offset="0.9229" style="stop-color:#D0217D"/>
			<stop  offset="1" style="stop-color:#ED1E79"/>
		</linearGradient>
		<path fill="url(#SVGID_2_)" d="M18.6,27.2c-0.9,0-1.7-0.2-2.4-0.7c-0.7-0.4-1.1-1-1.4-1.8c-0.3-0.7-0.5-1.6-0.5-2.6v-7.3
			c0-1.6,0.4-2.8,1.1-3.7c0.7-0.9,1.8-1.3,3.2-1.3c1.4,0,2.5,0.5,3.2,1.4c0.7,0.9,1.1,2.1,1.1,3.7v7.3c0,1.5-0.4,2.8-1.1,3.7
			C21.1,26.8,20,27.2,18.6,27.2z M18.6,25.2c1.2,0,1.8-1,1.8-3v-7.3c0-0.3,0-0.6,0-0.9s-0.1-0.5-0.2-0.8s-0.2-0.5-0.3-0.7
			c-0.1-0.2-0.3-0.3-0.5-0.4s-0.5-0.2-0.8-0.2c-0.3,0-0.6,0.1-0.8,0.2c-0.2,0.1-0.4,0.3-0.5,0.4c-0.1,0.2-0.2,0.4-0.3,0.7
			c-0.1,0.3-0.1,0.5-0.2,0.8s0,0.6,0,0.9v7.3c0,0.4,0,0.8,0.1,1.1c0.1,0.3,0.1,0.7,0.3,1c0.1,0.3,0.3,0.5,0.6,0.7
			C17.9,25.1,18.2,25.2,18.6,25.2z"/>
		<linearGradient id="SVGID_3_" gradientUnits="userSpaceOnUse" x1="4.1675" y1="19.9424" x2="146.709" y2="19.9424">
			<stop  offset="0" style="stop-color:#2E3192"/>
			<stop  offset="0.1239" style="stop-color:#373091"/>
			<stop  offset="0.3299" style="stop-color:#512D8E"/>
			<stop  offset="0.5909" style="stop-color:#7A2988"/>
			<stop  offset="0.7739" style="stop-color:#9B2684"/>
			<stop  offset="0.9229" style="stop-color:#D0217D"/>
			<stop  offset="1" style="stop-color:#ED1E79"/>
		</linearGradient>
		<path fill="url(#SVGID_3_)" d="M29,27V10h3.4L34.8,23L37.2,10h3.4V27h-2.4V13.6L35.7,27h-1.8l-2.4-13.5V27H29z"/>
		<linearGradient id="SVGID_4_" gradientUnits="userSpaceOnUse" x1="4.1675" y1="19.9424" x2="146.709" y2="19.9424">
			<stop  offset="0" style="stop-color:#2E3192"/>
			<stop  offset="0.1239" style="stop-color:#373091"/>
			<stop  offset="0.3299" style="stop-color:#512D8E"/>
			<stop  offset="0.5909" style="stop-color:#7A2988"/>
			<stop  offset="0.7739" style="stop-color:#9B2684"/>
			<stop  offset="0.9229" style="stop-color:#D0217D"/>
			<stop  offset="1" style="stop-color:#ED1E79"/>
		</linearGradient>
		<path fill="url(#SVGID_4_)" d="M43,13v-2.4h2.4V13H43z M43,27V14.8h2.4V27H43z"/>
		<linearGradient id="SVGID_5_" gradientUnits="userSpaceOnUse" x1="4.1675" y1="19.9424" x2="146.709" y2="19.9424">
			<stop  offset="0" style="stop-color:#2E3192"/>
			<stop  offset="0.1239" style="stop-color:#373091"/>
			<stop  offset="0.3299" style="stop-color:#512D8E"/>
			<stop  offset="0.5909" style="stop-color:#7A2988"/>
			<stop  offset="0.7739" style="stop-color:#9B2684"/>
			<stop  offset="0.9229" style="stop-color:#D0217D"/>
			<stop  offset="1" style="stop-color:#ED1E79"/>
		</linearGradient>
		<path fill="url(#SVGID_5_)" d="M47.8,27V14.8h2.4v1.3c0.4-0.3,0.7-0.6,0.9-0.8c0.2-0.2,0.5-0.3,0.9-0.5c0.4-0.2,0.8-0.2,1.3-0.2
			c0.5,0,0.9,0.2,1.3,0.6c0.3,0.4,0.5,0.8,0.5,1.4V27h-2.4v-9.1c0-0.4-0.1-0.7-0.2-0.9s-0.4-0.3-0.7-0.3c-0.2,0-0.4,0-0.6,0.1
			c-0.2,0.1-0.4,0.2-0.5,0.2c-0.1,0.1-0.2,0.2-0.4,0.3V27H47.8z"/>
		<linearGradient id="SVGID_6_" gradientUnits="userSpaceOnUse" x1="4.1675" y1="19.9424" x2="146.709" y2="19.9424">
			<stop  offset="0" style="stop-color:#2E3192"/>
			<stop  offset="0.1239" style="stop-color:#373091"/>
			<stop  offset="0.3299" style="stop-color:#512D8E"/>
			<stop  offset="0.5909" style="stop-color:#7A2988"/>
			<stop  offset="0.7739" style="stop-color:#9B2684"/>
			<stop  offset="0.9229" style="stop-color:#D0217D"/>
			<stop  offset="1" style="stop-color:#ED1E79"/>
		</linearGradient>
		<path fill="url(#SVGID_6_)" d="M59,27.2c-0.5,0-1-0.2-1.3-0.6c-0.3-0.4-0.5-0.8-0.5-1.4V14.8h2.4v9.7c0,0.3,0.1,0.5,0.2,0.6
			s0.4,0.2,0.6,0.2c0.1,0,0.3,0,0.4,0c0.1,0,0.3-0.1,0.4-0.2c0.1-0.1,0.2-0.1,0.3-0.2c0.1,0,0.2-0.1,0.3-0.2
			c0.1-0.1,0.2-0.2,0.2-0.2v-9.7h2.4V27h-2.4v-1.3c-0.2,0.2-0.4,0.4-0.5,0.5c-0.1,0.1-0.3,0.2-0.5,0.4c-0.2,0.2-0.4,0.3-0.6,0.4
			c-0.2,0.1-0.4,0.1-0.7,0.2C59.5,27.2,59.2,27.2,59,27.2z"/>
		<linearGradient id="SVGID_7_" gradientUnits="userSpaceOnUse" x1="4.1675" y1="19.9424" x2="146.709" y2="19.9424">
			<stop  offset="0" style="stop-color:#2E3192"/>
			<stop  offset="0.1239" style="stop-color:#373091"/>
			<stop  offset="0.3299" style="stop-color:#512D8E"/>
			<stop  offset="0.5909" style="stop-color:#7A2988"/>
			<stop  offset="0.7739" style="stop-color:#9B2684"/>
			<stop  offset="0.9229" style="stop-color:#D0217D"/>
			<stop  offset="1" style="stop-color:#ED1E79"/>
		</linearGradient>
		<path fill="url(#SVGID_7_)" d="M70,27.2c-1,0-1.7-0.2-2.1-0.7c-0.4-0.5-0.7-1.2-0.7-2.2v-7.6H66v-1.8h1.2v-4.3h2.4v4.3h1.8v1.8
			h-1.8v7.1c0,0.5,0.1,0.8,0.2,1.1s0.4,0.3,0.8,0.3c0.2,0,0.5,0,0.8-0.1v2C70.9,27.2,70.4,27.2,70,27.2z"/>
		<linearGradient id="SVGID_8_" gradientUnits="userSpaceOnUse" x1="4.1675" y1="19.9424" x2="146.709" y2="19.9424">
			<stop  offset="0" style="stop-color:#2E3192"/>
			<stop  offset="0.1239" style="stop-color:#373091"/>
			<stop  offset="0.3299" style="stop-color:#512D8E"/>
			<stop  offset="0.5909" style="stop-color:#7A2988"/>
			<stop  offset="0.7739" style="stop-color:#9B2684"/>
			<stop  offset="0.9229" style="stop-color:#D0217D"/>
			<stop  offset="1" style="stop-color:#ED1E79"/>
		</linearGradient>
		<path fill="url(#SVGID_8_)" d="M76.7,27.2c-0.6,0-1.1-0.1-1.5-0.3c-0.4-0.2-0.8-0.5-1-0.8s-0.5-0.7-0.6-1.3
			c-0.2-0.5-0.3-1-0.3-1.5c-0.1-0.5-0.1-1.1-0.1-1.8c0-0.5,0-1.1,0-1.6c0-0.6,0.1-1.2,0.1-1.7c0.1-0.5,0.2-1,0.3-1.4
			c0.2-0.5,0.4-0.8,0.6-1.1c0.3-0.3,0.6-0.5,1-0.7s0.9-0.3,1.5-0.3c0.5,0,1,0.1,1.4,0.2c0.4,0.1,0.7,0.3,1,0.6
			c0.3,0.3,0.5,0.6,0.7,0.9c0.2,0.3,0.3,0.7,0.4,1.2s0.2,1,0.2,1.4c0,0.5,0.1,1,0.1,1.6v0.3h-4.9v0.6c0,0.1,0,0.2,0,0.4
			c0,0.2,0,0.5,0,0.7c0,0.3,0,0.5,0,0.7c0,0.2,0,0.5,0.1,0.7c0.1,0.2,0.1,0.4,0.2,0.6c0.1,0.2,0.2,0.3,0.3,0.4
			c0.1,0.1,0.3,0.1,0.5,0.1c0.3,0,0.5,0,0.6-0.1s0.3-0.2,0.4-0.4c0.1-0.2,0.1-0.4,0.2-0.6c0-0.2,0.1-0.4,0.1-0.7v-0.5h2.4v0.5
			c-0.1,1.3-0.4,2.3-1,3C78.9,26.9,78,27.2,76.7,27.2z M75.5,19.7H78V19c0-0.3,0-0.6-0.1-0.8c0-0.2-0.1-0.5-0.2-0.7
			c-0.1-0.2-0.2-0.4-0.4-0.6c-0.2-0.1-0.4-0.2-0.6-0.2c-0.2,0-0.5,0.1-0.6,0.2c-0.2,0.1-0.3,0.3-0.4,0.6c-0.1,0.3-0.1,0.5-0.2,0.7
			c0,0.2-0.1,0.5-0.1,0.9V19.7z"/>
		<linearGradient id="SVGID_9_" gradientUnits="userSpaceOnUse" x1="4.1675" y1="19.9424" x2="146.709" y2="19.9424">
			<stop  offset="0" style="stop-color:#2E3192"/>
			<stop  offset="0.1239" style="stop-color:#373091"/>
			<stop  offset="0.3299" style="stop-color:#512D8E"/>
			<stop  offset="0.5909" style="stop-color:#7A2988"/>
			<stop  offset="0.7739" style="stop-color:#9B2684"/>
			<stop  offset="0.9229" style="stop-color:#D0217D"/>
			<stop  offset="1" style="stop-color:#ED1E79"/>
		</linearGradient>
		<path fill="url(#SVGID_9_)" d="M85.4,27.2c-1,0-1.8-0.3-2.4-0.9c-0.6-0.6-1-1.4-1.2-2.3l1.8-0.6c0.4,1.2,1,1.8,1.8,1.8
			c0.4,0,0.7-0.1,0.9-0.3s0.3-0.5,0.3-0.9c0-0.6-0.2-1-0.6-1.4l-2.4-1.8c-0.3-0.2-0.5-0.4-0.7-0.5c-0.2-0.2-0.4-0.4-0.6-0.6
			c-0.2-0.2-0.3-0.5-0.4-0.8c-0.1-0.3-0.1-0.6-0.1-1c0-1,0.3-1.8,1-2.4c0.7-0.6,1.6-0.8,2.7-0.8c0.5,0,1,0.1,1.4,0.3
			c0.4,0.2,0.8,0.4,1.1,0.7s0.5,0.6,0.7,1s0.3,0.8,0.4,1.2l-1.8,0.6c-0.1-0.2-0.2-0.4-0.3-0.6c-0.1-0.2-0.2-0.4-0.4-0.6
			c-0.1-0.2-0.3-0.4-0.5-0.5c-0.2-0.1-0.4-0.2-0.7-0.2c-0.4,0-0.7,0.1-0.9,0.3s-0.3,0.5-0.3,0.9c0,0.4,0.2,0.7,0.6,1l2.4,1.8
			c0.3,0.2,0.5,0.4,0.7,0.6c0.2,0.2,0.4,0.4,0.6,0.7c0.2,0.3,0.3,0.6,0.4,0.9c0.1,0.3,0.1,0.7,0.1,1c0,1-0.3,1.8-1,2.4
			S86.5,27.2,85.4,27.2z"/>
		<linearGradient id="SVGID_10_" gradientUnits="userSpaceOnUse" x1="4.1675" y1="19.9424" x2="146.709" y2="19.9424">
			<stop  offset="0" style="stop-color:#2E3192"/>
			<stop  offset="0.1239" style="stop-color:#373091"/>
			<stop  offset="0.3299" style="stop-color:#512D8E"/>
			<stop  offset="0.5909" style="stop-color:#7A2988"/>
			<stop  offset="0.7739" style="stop-color:#9B2684"/>
			<stop  offset="0.9229" style="stop-color:#D0217D"/>
			<stop  offset="1" style="stop-color:#ED1E79"/>
		</linearGradient>
		<path fill="url(#SVGID_10_)" d="M96.4,27V12.1h-3V10h8.5v2.2h-3V27H96.4z"/>
		<linearGradient id="SVGID_11_" gradientUnits="userSpaceOnUse" x1="4.1675" y1="19.9424" x2="146.709" y2="19.9424">
			<stop  offset="0" style="stop-color:#2E3192"/>
			<stop  offset="0.1239" style="stop-color:#373091"/>
			<stop  offset="0.3299" style="stop-color:#512D8E"/>
			<stop  offset="0.5909" style="stop-color:#7A2988"/>
			<stop  offset="0.7739" style="stop-color:#9B2684"/>
			<stop  offset="0.9229" style="stop-color:#D0217D"/>
			<stop  offset="1" style="stop-color:#ED1E79"/>
		</linearGradient>
		<path fill="url(#SVGID_11_)" d="M109.3,26.1c-0.6,0.8-1.5,1.1-2.8,1.1s-2.2-0.4-2.8-1.1c-0.6-0.8-0.8-1.9-0.8-3.3v-3.7
			c0-1.4,0.3-2.5,0.8-3.3s1.5-1.1,2.8-1.1s2.2,0.4,2.8,1.1s0.8,1.9,0.8,3.3v3.7C110.1,24.2,109.8,25.3,109.3,26.1z M106,25.1
			c0.1,0.1,0.3,0.1,0.5,0.1s0.3,0,0.5-0.1c0.1-0.1,0.2-0.1,0.3-0.2c0.1-0.1,0.2-0.2,0.2-0.3c0.1-0.1,0.1-0.3,0.1-0.4
			c0-0.1,0.1-0.3,0.1-0.5s0-0.4,0-0.5c0-0.1,0-0.3,0-0.5v-3.7c0-0.2,0-0.4,0-0.5c0-0.1,0-0.3,0-0.5c0-0.2,0-0.4-0.1-0.5
			c0-0.1-0.1-0.2-0.1-0.4c-0.1-0.1-0.1-0.3-0.2-0.3c-0.1-0.1-0.2-0.1-0.3-0.2c-0.1-0.1-0.3-0.1-0.5-0.1s-0.3,0-0.5,0.1
			c-0.1,0.1-0.2,0.1-0.3,0.2c-0.1,0.1-0.2,0.2-0.2,0.3c-0.1,0.1-0.1,0.3-0.1,0.4c0,0.1-0.1,0.3-0.1,0.5c0,0.2,0,0.4,0,0.5
			c0,0.1,0,0.3,0,0.5v3.7c0,0.2,0,0.4,0,0.5c0,0.1,0,0.3,0,0.5s0,0.4,0.1,0.5c0,0.1,0.1,0.2,0.1,0.4c0.1,0.1,0.1,0.3,0.2,0.3
			C105.8,25,105.9,25.1,106,25.1z"/>
		<linearGradient id="SVGID_12_" gradientUnits="userSpaceOnUse" x1="4.1675" y1="19.9424" x2="146.709" y2="19.9424">
			<stop  offset="0" style="stop-color:#2E3192"/>
			<stop  offset="0.1239" style="stop-color:#373091"/>
			<stop  offset="0.3299" style="stop-color:#512D8E"/>
			<stop  offset="0.5909" style="stop-color:#7A2988"/>
			<stop  offset="0.7739" style="stop-color:#9B2684"/>
			<stop  offset="0.9229" style="stop-color:#D0217D"/>
			<stop  offset="1" style="stop-color:#ED1E79"/>
		</linearGradient>
		<path fill="url(#SVGID_12_)" d="M116.2,27V10h4.3c2.8,0,4.3,1.6,4.3,4.9c0,1.4-0.4,2.5-1.1,3.2c-0.7,0.7-1.8,1.1-3.2,1.1h-1.8V27
			H116.2z M118.6,17.3h0.6c0.6,0,1,0,1.4-0.1s0.7-0.2,0.9-0.4c0.3-0.2,0.5-0.4,0.6-0.7c0.1-0.3,0.2-0.7,0.2-1.2c0-0.6,0-1.1-0.1-1.5
			s-0.3-0.7-0.5-0.9c-0.2-0.2-0.5-0.4-0.9-0.5s-0.9-0.1-1.5-0.1h-0.6V17.3z"/>
		<linearGradient id="SVGID_13_" gradientUnits="userSpaceOnUse" x1="4.1675" y1="19.9424" x2="146.709" y2="19.9424">
			<stop  offset="0" style="stop-color:#2E3192"/>
			<stop  offset="0.1239" style="stop-color:#373091"/>
			<stop  offset="0.3299" style="stop-color:#512D8E"/>
			<stop  offset="0.5909" style="stop-color:#7A2988"/>
			<stop  offset="0.7739" style="stop-color:#9B2684"/>
			<stop  offset="0.9229" style="stop-color:#D0217D"/>
			<stop  offset="1" style="stop-color:#ED1E79"/>
		</linearGradient>
		<path fill="url(#SVGID_13_)" d="M126,27V10h2.4V27H126z"/>
		<linearGradient id="SVGID_14_" gradientUnits="userSpaceOnUse" x1="4.1675" y1="19.9424" x2="146.709" y2="19.9424">
			<stop  offset="0" style="stop-color:#2E3192"/>
			<stop  offset="0.1239" style="stop-color:#373091"/>
			<stop  offset="0.3299" style="stop-color:#512D8E"/>
			<stop  offset="0.5909" style="stop-color:#7A2988"/>
			<stop  offset="0.7739" style="stop-color:#9B2684"/>
			<stop  offset="0.9229" style="stop-color:#D0217D"/>
			<stop  offset="1" style="stop-color:#ED1E79"/>
		</linearGradient>
		<path fill="url(#SVGID_14_)" d="M132.7,27.2c-0.7,0-1.3-0.3-1.7-0.9c-0.5-0.6-0.7-1.2-0.7-2c0-0.6,0.1-1.1,0.3-1.6
			c0.2-0.5,0.4-0.9,0.6-1.2c0.2-0.3,0.6-0.6,1.1-0.9c0.5-0.3,0.9-0.5,1.2-0.6s0.7-0.3,1.4-0.6c0.1,0,0.2-0.1,0.3-0.1v-0.9
			c0-0.6-0.1-1.1-0.3-1.4c-0.2-0.3-0.5-0.5-1-0.5c-0.4,0-0.7,0.1-0.9,0.4c-0.2,0.3-0.3,0.7-0.3,1.2c0,0.1,0,0.2,0,0.3h-2.4
			c0-1.2,0.3-2.1,1-2.8c0.6-0.7,1.5-1,2.7-1c1.1,0,2,0.4,2.7,1.1c0.7,0.7,1,1.6,1,2.8V24c0,1.3,0.1,2.3,0.3,3h-2.4l-0.3-1.8
			c-0.1,0.3-0.2,0.5-0.3,0.6s-0.2,0.3-0.3,0.5c-0.2,0.2-0.3,0.4-0.5,0.5c-0.2,0.1-0.3,0.2-0.6,0.3C133.3,27.2,133,27.2,132.7,27.2z
			 M134,25.2c0.2,0,0.3-0.1,0.5-0.2c0.2-0.1,0.3-0.2,0.4-0.3s0.2-0.2,0.3-0.4c0,0,0-0.1,0-0.1v-3.4c-0.1,0.1-0.3,0.2-0.5,0.3
			c-0.2,0.1-0.4,0.3-0.6,0.4s-0.3,0.2-0.5,0.4c-0.2,0.2-0.3,0.3-0.5,0.5c-0.1,0.1-0.2,0.3-0.3,0.5c-0.1,0.2-0.1,0.4-0.1,0.7
			C132.7,24.7,133.1,25.2,134,25.2z"/>
		<linearGradient id="SVGID_15_" gradientUnits="userSpaceOnUse" x1="4.1675" y1="19.9424" x2="146.709" y2="19.9424">
			<stop  offset="0" style="stop-color:#2E3192"/>
			<stop  offset="0.1239" style="stop-color:#373091"/>
			<stop  offset="0.3299" style="stop-color:#512D8E"/>
			<stop  offset="0.5909" style="stop-color:#7A2988"/>
			<stop  offset="0.7739" style="stop-color:#9B2684"/>
			<stop  offset="0.9229" style="stop-color:#D0217D"/>
			<stop  offset="1" style="stop-color:#ED1E79"/>
		</linearGradient>
		<path fill="url(#SVGID_15_)" d="M139.4,30.1v-1.8c0.5,0,0.9,0,1.2-0.1s0.5-0.2,0.7-0.3c0.1-0.2,0.2-0.3,0.3-0.5
			c0-0.2,0.1-0.5,0.1-0.8l-2.8-11.6h2.4c0.9,5.2,1.5,8.1,1.5,8.5c0.1-0.9,0.3-1.8,0.5-2.7s0.4-2,0.6-3.1c0.2-1.1,0.4-2,0.5-2.7h2.4
			l-3,12.8c-0.2,0.9-0.6,1.5-1.3,1.9c-0.7,0.4-1.6,0.6-2.7,0.6H139.4z"/>
	</g>
</g>
</svg>
